<mxfile host="app.diagrams.net" modified="2023-03-27T20:11:45.006Z" agent="Mozilla/5.0 (Windows NT 10.0; Win64; x64) AppleWebKit/537.36 (KHTML, like Gecko) Chrome/111.0.0.0 Safari/537.36" etag="Zro8okNkw1DSW0a_cpLh" version="21.1.1" type="device">
  <diagram name="Страница 1" id="aAf5XVbya7MM-6X7y5u4">
    <mxGraphModel dx="862" dy="470" grid="1" gridSize="10" guides="1" tooltips="1" connect="1" arrows="1" fold="1" page="1" pageScale="1" pageWidth="827" pageHeight="1169" math="0" shadow="0">
      <root>
        <mxCell id="0" />
        <mxCell id="1" parent="0" />
        <mxCell id="ye_RadcAmbAJr4Mu0Y6p-38" style="edgeStyle=orthogonalEdgeStyle;rounded=0;orthogonalLoop=1;jettySize=auto;html=1;exitX=1;exitY=0.5;exitDx=0;exitDy=0;entryX=0;entryY=0.5;entryDx=0;entryDy=0;" edge="1" parent="1" source="ye_RadcAmbAJr4Mu0Y6p-34" target="ye_RadcAmbAJr4Mu0Y6p-34">
          <mxGeometry relative="1" as="geometry">
            <mxPoint x="450" y="515" as="targetPoint" />
            <Array as="points">
              <mxPoint x="800" y="515" />
              <mxPoint x="800" y="310" />
              <mxPoint x="800" y="240" />
              <mxPoint x="450" y="240" />
              <mxPoint x="450" y="515" />
            </Array>
          </mxGeometry>
        </mxCell>
        <mxCell id="C6bqFNzWYAfefAJQA8YY-1" value="" style="shape=curlyBracket;whiteSpace=wrap;html=1;rounded=1;labelPosition=left;verticalLabelPosition=middle;align=right;verticalAlign=middle;size=0.5;strokeWidth=2;" parent="1" vertex="1">
          <mxGeometry x="90" y="80" width="20" height="530" as="geometry" />
        </mxCell>
        <mxCell id="C6bqFNzWYAfefAJQA8YY-2" value="Системный интерфейс микроЭВМ" style="text;strokeColor=none;fillColor=none;html=1;fontSize=24;fontStyle=0;verticalAlign=middle;align=center;rotation=-90;fontFamily=Lucida Console;" parent="1" vertex="1">
          <mxGeometry x="-190" y="330" width="507" height="20" as="geometry" />
        </mxCell>
        <mxCell id="C6bqFNzWYAfefAJQA8YY-4" value="&lt;font style=&quot;font-size: 17px;&quot; face=&quot;Lucida Console&quot;&gt;&lt;br&gt;Приемопе-&lt;br&gt;редатчики шины&lt;br&gt;данных&lt;/font&gt;" style="rounded=0;whiteSpace=wrap;html=1;" parent="1" vertex="1">
          <mxGeometry x="230" y="40" width="110" height="150" as="geometry" />
        </mxCell>
        <mxCell id="C6bqFNzWYAfefAJQA8YY-16" style="edgeStyle=orthogonalEdgeStyle;rounded=0;orthogonalLoop=1;jettySize=auto;html=1;exitX=0.5;exitY=0;exitDx=0;exitDy=0;entryX=0.5;entryY=1;entryDx=0;entryDy=0;" parent="1" source="C6bqFNzWYAfefAJQA8YY-5" target="C6bqFNzWYAfefAJQA8YY-4" edge="1">
          <mxGeometry relative="1" as="geometry" />
        </mxCell>
        <mxCell id="C6bqFNzWYAfefAJQA8YY-17" style="edgeStyle=orthogonalEdgeStyle;rounded=0;orthogonalLoop=1;jettySize=auto;html=1;exitX=-0.011;exitY=0.178;exitDx=0;exitDy=0;exitPerimeter=0;" parent="1" source="C6bqFNzWYAfefAJQA8YY-5" edge="1">
          <mxGeometry relative="1" as="geometry">
            <mxPoint x="110" y="297" as="targetPoint" />
          </mxGeometry>
        </mxCell>
        <mxCell id="C6bqFNzWYAfefAJQA8YY-18" style="edgeStyle=orthogonalEdgeStyle;rounded=0;orthogonalLoop=1;jettySize=auto;html=1;exitX=0.01;exitY=0.561;exitDx=0;exitDy=0;startArrow=classic;startFill=1;endArrow=none;endFill=0;exitPerimeter=0;" parent="1" source="C6bqFNzWYAfefAJQA8YY-5" edge="1">
          <mxGeometry relative="1" as="geometry">
            <mxPoint x="110" y="378" as="targetPoint" />
          </mxGeometry>
        </mxCell>
        <mxCell id="ye_RadcAmbAJr4Mu0Y6p-46" style="edgeStyle=orthogonalEdgeStyle;rounded=0;orthogonalLoop=1;jettySize=auto;html=1;exitX=1;exitY=0.5;exitDx=0;exitDy=0;entryX=0;entryY=0.25;entryDx=0;entryDy=0;" edge="1" parent="1" source="C6bqFNzWYAfefAJQA8YY-5" target="ye_RadcAmbAJr4Mu0Y6p-45">
          <mxGeometry relative="1" as="geometry">
            <mxPoint x="350" y="340" as="targetPoint" />
            <Array as="points">
              <mxPoint x="340" y="343" />
              <mxPoint x="370" y="343" />
            </Array>
          </mxGeometry>
        </mxCell>
        <mxCell id="ye_RadcAmbAJr4Mu0Y6p-70" style="edgeStyle=orthogonalEdgeStyle;rounded=0;orthogonalLoop=1;jettySize=auto;html=1;exitX=1;exitY=0.75;exitDx=0;exitDy=0;entryX=0;entryY=0.5;entryDx=0;entryDy=0;" edge="1" parent="1" source="C6bqFNzWYAfefAJQA8YY-5" target="ye_RadcAmbAJr4Mu0Y6p-4">
          <mxGeometry relative="1" as="geometry">
            <Array as="points">
              <mxPoint x="470" y="418" />
              <mxPoint x="470" y="310" />
            </Array>
          </mxGeometry>
        </mxCell>
        <mxCell id="ye_RadcAmbAJr4Mu0Y6p-78" style="edgeStyle=orthogonalEdgeStyle;rounded=0;orthogonalLoop=1;jettySize=auto;html=1;exitX=1;exitY=0.75;exitDx=0;exitDy=0;" edge="1" parent="1" source="C6bqFNzWYAfefAJQA8YY-5">
          <mxGeometry relative="1" as="geometry">
            <mxPoint x="350" y="417.42857142857144" as="targetPoint" />
          </mxGeometry>
        </mxCell>
        <mxCell id="C6bqFNzWYAfefAJQA8YY-5" value="&lt;font style=&quot;font-size: 17px;&quot; face=&quot;Lucida Console&quot;&gt;Логика&lt;br&gt;управле-&lt;br&gt;ния&lt;br&gt;&lt;br&gt;&lt;br&gt;&lt;/font&gt;" style="rounded=0;whiteSpace=wrap;html=1;" parent="1" vertex="1">
          <mxGeometry x="230" y="260" width="110" height="210" as="geometry" />
        </mxCell>
        <mxCell id="C6bqFNzWYAfefAJQA8YY-6" value="&lt;font style=&quot;font-size: 17px;&quot; face=&quot;Lucida Console&quot;&gt;Прием-&lt;br&gt;ники&lt;br&gt;шины&lt;br&gt;адреса&lt;/font&gt;" style="rounded=0;whiteSpace=wrap;html=1;" parent="1" vertex="1">
          <mxGeometry x="245" y="520" width="80" height="100" as="geometry" />
        </mxCell>
        <mxCell id="C6bqFNzWYAfefAJQA8YY-9" value="" style="shape=flexArrow;endArrow=block;html=1;rounded=0;startArrow=block;width=12.941176470588236;endSize=7.682352941176471;" parent="1" edge="1">
          <mxGeometry width="50" height="50" relative="1" as="geometry">
            <mxPoint x="100" y="150" as="sourcePoint" />
            <mxPoint x="230" y="150" as="targetPoint" />
            <Array as="points" />
          </mxGeometry>
        </mxCell>
        <mxCell id="C6bqFNzWYAfefAJQA8YY-11" value="&lt;font style=&quot;font-size: 17px;&quot; face=&quot;Lucida Console&quot;&gt;Шина&lt;/font&gt;" style="text;html=1;strokeColor=none;fillColor=none;align=center;verticalAlign=middle;whiteSpace=wrap;rounded=0;" parent="1" vertex="1">
          <mxGeometry x="130" y="110" width="60" height="30" as="geometry" />
        </mxCell>
        <mxCell id="C6bqFNzWYAfefAJQA8YY-12" value="&lt;font face=&quot;Lucida Console&quot;&gt;&lt;span style=&quot;font-size: 17px;&quot;&gt;данных&lt;/span&gt;&lt;/font&gt;" style="text;html=1;strokeColor=none;fillColor=none;align=center;verticalAlign=middle;whiteSpace=wrap;rounded=0;" parent="1" vertex="1">
          <mxGeometry x="130" y="160" width="60" height="30" as="geometry" />
        </mxCell>
        <mxCell id="C6bqFNzWYAfefAJQA8YY-19" value="&lt;font style=&quot;font-size: 16px;&quot; face=&quot;Lucida Console&quot;&gt;&quot;Требо-&lt;br&gt;вание&lt;br&gt;ПДП&quot;&lt;/font&gt;" style="text;html=1;strokeColor=none;fillColor=none;align=center;verticalAlign=middle;whiteSpace=wrap;rounded=0;" parent="1" vertex="1">
          <mxGeometry x="140" y="240" width="60" height="60" as="geometry" />
        </mxCell>
        <mxCell id="C6bqFNzWYAfefAJQA8YY-20" value="&lt;font style=&quot;font-size: 16px;&quot; face=&quot;Lucida Console&quot;&gt;&quot;Предос-&lt;br&gt;тавление&lt;br&gt;ПДП&quot;&lt;/font&gt;" style="text;html=1;strokeColor=none;fillColor=none;align=center;verticalAlign=middle;whiteSpace=wrap;rounded=0;" parent="1" vertex="1">
          <mxGeometry x="140" y="320" width="60" height="60" as="geometry" />
        </mxCell>
        <mxCell id="C6bqFNzWYAfefAJQA8YY-21" value="" style="endArrow=classic;startArrow=classic;html=1;rounded=0;entryX=0.014;entryY=0.906;entryDx=0;entryDy=0;entryPerimeter=0;" parent="1" target="C6bqFNzWYAfefAJQA8YY-5" edge="1">
          <mxGeometry width="50" height="50" relative="1" as="geometry">
            <mxPoint x="110" y="450" as="sourcePoint" />
            <mxPoint x="220" y="450" as="targetPoint" />
          </mxGeometry>
        </mxCell>
        <mxCell id="C6bqFNzWYAfefAJQA8YY-22" value="&lt;font style=&quot;font-size: 16px;&quot; face=&quot;Lucida Console&quot;&gt;&quot;Вывод&quot;&lt;/font&gt;" style="text;html=1;strokeColor=none;fillColor=none;align=center;verticalAlign=middle;whiteSpace=wrap;rounded=0;" parent="1" vertex="1">
          <mxGeometry x="140" y="410" width="60" height="60" as="geometry" />
        </mxCell>
        <mxCell id="C6bqFNzWYAfefAJQA8YY-24" value="" style="shape=flexArrow;endArrow=classic;html=1;rounded=0;exitX=0.5;exitY=0;exitDx=0;exitDy=0;entryX=0.5;entryY=1;entryDx=0;entryDy=0;" parent="1" source="C6bqFNzWYAfefAJQA8YY-6" target="C6bqFNzWYAfefAJQA8YY-5" edge="1">
          <mxGeometry width="50" height="50" relative="1" as="geometry">
            <mxPoint x="120" y="470" as="sourcePoint" />
            <mxPoint x="170" y="420" as="targetPoint" />
          </mxGeometry>
        </mxCell>
        <mxCell id="C6bqFNzWYAfefAJQA8YY-26" value="" style="shape=flexArrow;endArrow=block;html=1;rounded=0;startArrow=block;width=12.941176470588236;endSize=8.905882352941177;startWidth=19.009287925696594;startSize=8.905882352941177;entryX=0;entryY=0.5;entryDx=0;entryDy=0;" parent="1" edge="1" target="C6bqFNzWYAfefAJQA8YY-6">
          <mxGeometry width="50" height="50" relative="1" as="geometry">
            <mxPoint x="110" y="570" as="sourcePoint" />
            <mxPoint x="245" y="570.29" as="targetPoint" />
            <Array as="points" />
          </mxGeometry>
        </mxCell>
        <mxCell id="C6bqFNzWYAfefAJQA8YY-27" value="&lt;font style=&quot;font-size: 17px;&quot; face=&quot;Lucida Console&quot;&gt;Шина&lt;/font&gt;" style="text;html=1;strokeColor=none;fillColor=none;align=center;verticalAlign=middle;whiteSpace=wrap;rounded=0;" parent="1" vertex="1">
          <mxGeometry x="150" y="530" width="60" height="30" as="geometry" />
        </mxCell>
        <mxCell id="C6bqFNzWYAfefAJQA8YY-30" value="&lt;font face=&quot;Lucida Console&quot;&gt;&lt;span style=&quot;font-size: 17px;&quot;&gt;адреса&lt;/span&gt;&lt;/font&gt;" style="text;html=1;strokeColor=none;fillColor=none;align=center;verticalAlign=middle;whiteSpace=wrap;rounded=0;" parent="1" vertex="1">
          <mxGeometry x="150" y="580" width="60" height="30" as="geometry" />
        </mxCell>
        <mxCell id="C6bqFNzWYAfefAJQA8YY-38" value="&lt;p style=&quot;line-height: 90%; font-size: 14px;&quot;&gt;&lt;font style=&quot;font-size: 14px;&quot; face=&quot;Lucida Console&quot;&gt;&lt;br&gt;&lt;/font&gt;&lt;/p&gt;&lt;p style=&quot;line-height: 90%; font-size: 14px;&quot;&gt;&lt;font style=&quot;font-size: 14px;&quot; face=&quot;Lucida Console&quot;&gt;&amp;nbsp; &amp;nbsp;0&lt;br&gt;&amp;nbsp; &amp;nbsp; –&lt;br&gt;&amp;nbsp; &amp;nbsp;1&lt;br&gt;&amp;nbsp; &amp;nbsp;.–&lt;br&gt;&amp;nbsp; &amp;nbsp;.&lt;br&gt;&amp;nbsp; &amp;nbsp;.&lt;br&gt;&amp;nbsp; &amp;nbsp; &amp;nbsp; &amp;nbsp; &amp;nbsp; –&lt;br&gt;&amp;nbsp; &amp;nbsp;7&lt;/font&gt;&lt;/p&gt;&lt;p style=&quot;line-height: 90%; font-size: 14px;&quot;&gt;&lt;font style=&quot;font-size: 14px;&quot; face=&quot;Lucida Console&quot;&gt;&lt;br&gt;&lt;/font&gt;&lt;/p&gt;" style="rounded=0;whiteSpace=wrap;html=1;align=left;" parent="1" vertex="1">
          <mxGeometry x="620" y="40" width="50" height="170" as="geometry" />
        </mxCell>
        <mxCell id="ye_RadcAmbAJr4Mu0Y6p-1" value="" style="shape=flexArrow;endArrow=classic;html=1;rounded=0;endFill=1;startFill=0;startArrow=none;" edge="1" parent="1">
          <mxGeometry width="50" height="50" relative="1" as="geometry">
            <mxPoint x="750" y="124.29" as="sourcePoint" />
            <mxPoint x="670" y="124.58" as="targetPoint" />
          </mxGeometry>
        </mxCell>
        <mxCell id="ye_RadcAmbAJr4Mu0Y6p-2" value="&lt;font style=&quot;font-size: 17px;&quot; face=&quot;Lucida Console&quot;&gt;Из ВУ&lt;/font&gt;" style="text;html=1;strokeColor=none;fillColor=none;align=center;verticalAlign=middle;whiteSpace=wrap;rounded=0;" vertex="1" parent="1">
          <mxGeometry x="690" y="90" width="60" height="30" as="geometry" />
        </mxCell>
        <mxCell id="ye_RadcAmbAJr4Mu0Y6p-3" value="" style="shape=flexArrow;endArrow=classic;html=1;rounded=0;endFill=1;startFill=0;startArrow=none;" edge="1" parent="1">
          <mxGeometry width="50" height="50" relative="1" as="geometry">
            <mxPoint x="620" y="124.28999999999999" as="sourcePoint" />
            <mxPoint x="340" y="125" as="targetPoint" />
          </mxGeometry>
        </mxCell>
        <mxCell id="ye_RadcAmbAJr4Mu0Y6p-4" value="&lt;font style=&quot;font-size: 17px;&quot; face=&quot;Lucida Console&quot;&gt;7 | 6 |. . . | 1 | 0&lt;/font&gt;" style="rounded=0;whiteSpace=wrap;html=1;" vertex="1" parent="1">
          <mxGeometry x="530" y="290" width="230" height="40" as="geometry" />
        </mxCell>
        <mxCell id="ye_RadcAmbAJr4Mu0Y6p-5" value="&lt;font face=&quot;Lucida Console&quot;&gt;&lt;span style=&quot;font-size: 17px;&quot;&gt;Счётчик&lt;br&gt;байтов А0&lt;/span&gt;&lt;/font&gt;" style="text;html=1;strokeColor=none;fillColor=none;align=center;verticalAlign=middle;whiteSpace=wrap;rounded=0;" vertex="1" parent="1">
          <mxGeometry x="600" y="250" width="160" height="40" as="geometry" />
        </mxCell>
        <mxCell id="ye_RadcAmbAJr4Mu0Y6p-29" style="edgeStyle=orthogonalEdgeStyle;rounded=0;orthogonalLoop=1;jettySize=auto;html=1;exitX=0.5;exitY=1;exitDx=0;exitDy=0;entryX=0;entryY=0.5;entryDx=0;entryDy=0;endArrow=none;endFill=0;" edge="1" parent="1" source="ye_RadcAmbAJr4Mu0Y6p-9" target="ye_RadcAmbAJr4Mu0Y6p-27">
          <mxGeometry relative="1" as="geometry" />
        </mxCell>
        <mxCell id="ye_RadcAmbAJr4Mu0Y6p-9" value="&lt;font style=&quot;font-size: 21px;&quot; face=&quot;Lucida Console&quot;&gt;&amp;amp;&lt;/font&gt;" style="rounded=0;whiteSpace=wrap;html=1;" vertex="1" parent="1">
          <mxGeometry x="530" y="390" width="230" height="40" as="geometry" />
        </mxCell>
        <mxCell id="ye_RadcAmbAJr4Mu0Y6p-12" value="" style="endArrow=none;html=1;rounded=0;exitX=0;exitY=0.5;exitDx=0;exitDy=0;" edge="1" parent="1" source="ye_RadcAmbAJr4Mu0Y6p-13">
          <mxGeometry width="50" height="50" relative="1" as="geometry">
            <mxPoint x="390" y="360" as="sourcePoint" />
            <mxPoint x="550" y="330" as="targetPoint" />
          </mxGeometry>
        </mxCell>
        <mxCell id="ye_RadcAmbAJr4Mu0Y6p-15" value="" style="endArrow=none;html=1;rounded=0;exitX=0.089;exitY=0.004;exitDx=0;exitDy=0;exitPerimeter=0;" edge="1" parent="1" source="ye_RadcAmbAJr4Mu0Y6p-9" target="ye_RadcAmbAJr4Mu0Y6p-13">
          <mxGeometry width="50" height="50" relative="1" as="geometry">
            <mxPoint x="550" y="390" as="sourcePoint" />
            <mxPoint x="550" y="330" as="targetPoint" />
          </mxGeometry>
        </mxCell>
        <mxCell id="ye_RadcAmbAJr4Mu0Y6p-13" value="" style="triangle;whiteSpace=wrap;html=1;rotation=90;" vertex="1" parent="1">
          <mxGeometry x="540" y="350" width="20" height="30" as="geometry" />
        </mxCell>
        <mxCell id="ye_RadcAmbAJr4Mu0Y6p-16" value="" style="triangle;whiteSpace=wrap;html=1;rotation=90;" vertex="1" parent="1">
          <mxGeometry x="690" y="350" width="20" height="30" as="geometry" />
        </mxCell>
        <mxCell id="ye_RadcAmbAJr4Mu0Y6p-19" value="" style="triangle;whiteSpace=wrap;html=1;rotation=90;" vertex="1" parent="1">
          <mxGeometry x="730" y="350" width="20" height="30" as="geometry" />
        </mxCell>
        <mxCell id="ye_RadcAmbAJr4Mu0Y6p-21" value="" style="endArrow=none;html=1;rounded=0;exitX=0;exitY=0.5;exitDx=0;exitDy=0;" edge="1" parent="1" source="ye_RadcAmbAJr4Mu0Y6p-16">
          <mxGeometry width="50" height="50" relative="1" as="geometry">
            <mxPoint x="650" y="360" as="sourcePoint" />
            <mxPoint x="700" y="330" as="targetPoint" />
          </mxGeometry>
        </mxCell>
        <mxCell id="ye_RadcAmbAJr4Mu0Y6p-22" value="" style="endArrow=none;html=1;rounded=0;exitX=0;exitY=0.5;exitDx=0;exitDy=0;" edge="1" parent="1" source="ye_RadcAmbAJr4Mu0Y6p-19">
          <mxGeometry width="50" height="50" relative="1" as="geometry">
            <mxPoint x="710" y="365" as="sourcePoint" />
            <mxPoint x="740" y="330" as="targetPoint" />
          </mxGeometry>
        </mxCell>
        <mxCell id="ye_RadcAmbAJr4Mu0Y6p-23" value="" style="endArrow=none;html=1;rounded=0;entryX=1;entryY=0.5;entryDx=0;entryDy=0;" edge="1" parent="1" target="ye_RadcAmbAJr4Mu0Y6p-16">
          <mxGeometry width="50" height="50" relative="1" as="geometry">
            <mxPoint x="700" y="390" as="sourcePoint" />
            <mxPoint x="560" y="385" as="targetPoint" />
            <Array as="points" />
          </mxGeometry>
        </mxCell>
        <mxCell id="ye_RadcAmbAJr4Mu0Y6p-24" value="" style="endArrow=none;html=1;rounded=0;exitX=0.913;exitY=-0.027;exitDx=0;exitDy=0;exitPerimeter=0;entryX=1;entryY=0.5;entryDx=0;entryDy=0;" edge="1" parent="1" source="ye_RadcAmbAJr4Mu0Y6p-9" target="ye_RadcAmbAJr4Mu0Y6p-19">
          <mxGeometry width="50" height="50" relative="1" as="geometry">
            <mxPoint x="570" y="410" as="sourcePoint" />
            <mxPoint x="570" y="395" as="targetPoint" />
          </mxGeometry>
        </mxCell>
        <mxCell id="ye_RadcAmbAJr4Mu0Y6p-25" value="&lt;font style=&quot;font-size: 19px;&quot; face=&quot;Lucida Console&quot;&gt;. . .&lt;/font&gt;" style="text;html=1;strokeColor=none;fillColor=none;align=center;verticalAlign=middle;whiteSpace=wrap;rounded=0;" vertex="1" parent="1">
          <mxGeometry x="550" y="340" width="160" height="40" as="geometry" />
        </mxCell>
        <mxCell id="ye_RadcAmbAJr4Mu0Y6p-47" style="edgeStyle=orthogonalEdgeStyle;rounded=0;orthogonalLoop=1;jettySize=auto;html=1;exitX=1;exitY=0.5;exitDx=0;exitDy=0;entryX=0;entryY=0.5;entryDx=0;entryDy=0;" edge="1" parent="1" source="ye_RadcAmbAJr4Mu0Y6p-27" target="ye_RadcAmbAJr4Mu0Y6p-45">
          <mxGeometry relative="1" as="geometry">
            <mxPoint x="370" y="380" as="targetPoint" />
            <Array as="points">
              <mxPoint x="395" y="465" />
              <mxPoint x="395" y="400" />
              <mxPoint x="350" y="400" />
              <mxPoint x="350" y="355" />
            </Array>
          </mxGeometry>
        </mxCell>
        <mxCell id="ye_RadcAmbAJr4Mu0Y6p-27" value="" style="triangle;whiteSpace=wrap;html=1;rotation=-180;" vertex="1" parent="1">
          <mxGeometry x="600" y="450" width="20" height="30" as="geometry" />
        </mxCell>
        <mxCell id="ye_RadcAmbAJr4Mu0Y6p-30" value="&lt;font face=&quot;Lucida Console&quot;&gt;&lt;span style=&quot;font-size: 17px;&quot;&gt;Чтение РД&lt;/span&gt;&lt;/font&gt;" style="text;html=1;strokeColor=none;fillColor=none;align=center;verticalAlign=middle;whiteSpace=wrap;rounded=0;rotation=-90;" vertex="1" parent="1">
          <mxGeometry x="500" y="160" width="80" height="30" as="geometry" />
        </mxCell>
        <mxCell id="ye_RadcAmbAJr4Mu0Y6p-72" style="edgeStyle=orthogonalEdgeStyle;rounded=0;orthogonalLoop=1;jettySize=auto;html=1;exitX=0;exitY=0.75;exitDx=0;exitDy=0;endArrow=none;endFill=0;startArrow=classic;startFill=1;" edge="1" parent="1" source="ye_RadcAmbAJr4Mu0Y6p-34">
          <mxGeometry relative="1" as="geometry">
            <mxPoint x="370" y="420" as="targetPoint" />
            <Array as="points">
              <mxPoint x="370" y="527" />
            </Array>
          </mxGeometry>
        </mxCell>
        <mxCell id="ye_RadcAmbAJr4Mu0Y6p-34" value="&lt;font style=&quot;font-size: 17px;&quot; face=&quot;Lucida Console&quot;&gt;7 | 6 |. . . | 1 | 0&lt;/font&gt;" style="rounded=0;whiteSpace=wrap;html=1;" vertex="1" parent="1">
          <mxGeometry x="470" y="490" width="290" height="50" as="geometry" />
        </mxCell>
        <mxCell id="ye_RadcAmbAJr4Mu0Y6p-35" value="" style="shape=flexArrow;endArrow=classic;html=1;rounded=0;exitX=0.5;exitY=1;exitDx=0;exitDy=0;width=13.68421052631579;endSize=8.694736842105263;endWidth=19.279778393351805;entryX=1;entryY=0.5;entryDx=0;entryDy=0;" edge="1" parent="1" source="ye_RadcAmbAJr4Mu0Y6p-34" target="C6bqFNzWYAfefAJQA8YY-6">
          <mxGeometry width="50" height="50" relative="1" as="geometry">
            <mxPoint x="500" y="635" as="sourcePoint" />
            <mxPoint x="330" y="570" as="targetPoint" />
            <Array as="points">
              <mxPoint x="615" y="570" />
            </Array>
          </mxGeometry>
        </mxCell>
        <mxCell id="ye_RadcAmbAJr4Mu0Y6p-37" value="&lt;font face=&quot;Lucida Console&quot;&gt;&lt;span style=&quot;font-size: 17px;&quot;&gt;Регистр адреса (РА) А1&lt;/span&gt;&lt;/font&gt;" style="text;html=1;strokeColor=none;fillColor=none;align=center;verticalAlign=middle;whiteSpace=wrap;rounded=0;" vertex="1" parent="1">
          <mxGeometry x="620" y="550" width="160" height="40" as="geometry" />
        </mxCell>
        <mxCell id="ye_RadcAmbAJr4Mu0Y6p-39" value="" style="shape=flexArrow;endArrow=classic;html=1;rounded=0;endFill=1;startFill=0;startArrow=none;entryX=0.069;entryY=0;entryDx=0;entryDy=0;entryPerimeter=0;" edge="1" parent="1" target="ye_RadcAmbAJr4Mu0Y6p-34">
          <mxGeometry width="50" height="50" relative="1" as="geometry">
            <mxPoint x="490" y="130" as="sourcePoint" />
            <mxPoint x="490" y="480" as="targetPoint" />
          </mxGeometry>
        </mxCell>
        <mxCell id="ye_RadcAmbAJr4Mu0Y6p-6" value="" style="shape=flexArrow;endArrow=classic;html=1;rounded=0;endFill=1;startFill=0;startArrow=none;" edge="1" parent="1">
          <mxGeometry width="50" height="50" relative="1" as="geometry">
            <mxPoint x="570" y="130" as="sourcePoint" />
            <mxPoint x="570" y="290" as="targetPoint" />
          </mxGeometry>
        </mxCell>
        <mxCell id="ye_RadcAmbAJr4Mu0Y6p-40" value="" style="endArrow=classic;html=1;rounded=0;" edge="1" parent="1">
          <mxGeometry width="50" height="50" relative="1" as="geometry">
            <mxPoint x="800" y="310" as="sourcePoint" />
            <mxPoint x="760" y="310" as="targetPoint" />
          </mxGeometry>
        </mxCell>
        <mxCell id="ye_RadcAmbAJr4Mu0Y6p-41" value="&lt;font style=&quot;font-size: 17px;&quot; face=&quot;Lucida Console&quot;&gt;-1&lt;/font&gt;" style="text;html=1;strokeColor=none;fillColor=none;align=center;verticalAlign=middle;whiteSpace=wrap;rounded=0;" vertex="1" parent="1">
          <mxGeometry x="750" y="280" width="60" height="30" as="geometry" />
        </mxCell>
        <mxCell id="ye_RadcAmbAJr4Mu0Y6p-43" value="&lt;font style=&quot;font-size: 17px;&quot; face=&quot;Lucida Console&quot;&gt;+1&lt;/font&gt;" style="text;html=1;strokeColor=none;fillColor=none;align=center;verticalAlign=middle;whiteSpace=wrap;rounded=0;" vertex="1" parent="1">
          <mxGeometry x="750" y="490" width="60" height="30" as="geometry" />
        </mxCell>
        <mxCell id="ye_RadcAmbAJr4Mu0Y6p-48" style="edgeStyle=orthogonalEdgeStyle;rounded=0;orthogonalLoop=1;jettySize=auto;html=1;exitX=0;exitY=0.5;exitDx=0;exitDy=0;entryX=1.007;entryY=0.283;entryDx=0;entryDy=0;entryPerimeter=0;" edge="1" parent="1" source="ye_RadcAmbAJr4Mu0Y6p-44" target="C6bqFNzWYAfefAJQA8YY-5">
          <mxGeometry relative="1" as="geometry">
            <mxPoint x="350" y="320" as="targetPoint" />
            <Array as="points">
              <mxPoint x="360" y="235" />
              <mxPoint x="360" y="319" />
            </Array>
          </mxGeometry>
        </mxCell>
        <mxCell id="ye_RadcAmbAJr4Mu0Y6p-44" value="&lt;font style=&quot;font-size: 19px;&quot; face=&quot;Lucida Console&quot;&gt;&amp;amp; (И1)&lt;/font&gt;" style="rounded=0;whiteSpace=wrap;html=1;" vertex="1" parent="1">
          <mxGeometry x="370" y="210" width="50" height="50" as="geometry" />
        </mxCell>
        <mxCell id="ye_RadcAmbAJr4Mu0Y6p-82" style="edgeStyle=orthogonalEdgeStyle;rounded=0;orthogonalLoop=1;jettySize=auto;html=1;exitX=1;exitY=0.5;exitDx=0;exitDy=0;" edge="1" parent="1" source="ye_RadcAmbAJr4Mu0Y6p-45">
          <mxGeometry relative="1" as="geometry">
            <mxPoint x="450" y="355.17647058823536" as="targetPoint" />
          </mxGeometry>
        </mxCell>
        <mxCell id="ye_RadcAmbAJr4Mu0Y6p-45" value="&lt;font style=&quot;font-size: 19px;&quot; face=&quot;Lucida Console&quot;&gt;&amp;amp; (И2)&lt;/font&gt;" style="rounded=0;whiteSpace=wrap;html=1;" vertex="1" parent="1">
          <mxGeometry x="370" y="330" width="50" height="50" as="geometry" />
        </mxCell>
        <mxCell id="ye_RadcAmbAJr4Mu0Y6p-49" value="" style="endArrow=classic;html=1;rounded=0;entryX=1.003;entryY=0.6;entryDx=0;entryDy=0;entryPerimeter=0;" edge="1" parent="1" target="ye_RadcAmbAJr4Mu0Y6p-44">
          <mxGeometry width="50" height="50" relative="1" as="geometry">
            <mxPoint x="440" y="465" as="sourcePoint" />
            <mxPoint x="430" y="235" as="targetPoint" />
            <Array as="points">
              <mxPoint x="440" y="240" />
            </Array>
          </mxGeometry>
        </mxCell>
        <mxCell id="ye_RadcAmbAJr4Mu0Y6p-50" value="" style="endArrow=classic;html=1;rounded=0;" edge="1" parent="1">
          <mxGeometry width="50" height="50" relative="1" as="geometry">
            <mxPoint x="795" y="220" as="sourcePoint" />
            <mxPoint x="685" y="220" as="targetPoint" />
          </mxGeometry>
        </mxCell>
        <mxCell id="ye_RadcAmbAJr4Mu0Y6p-51" value="" style="endArrow=classic;html=1;rounded=0;" edge="1" parent="1">
          <mxGeometry width="50" height="50" relative="1" as="geometry">
            <mxPoint x="690" y="220" as="sourcePoint" />
            <mxPoint x="420" y="220" as="targetPoint" />
          </mxGeometry>
        </mxCell>
        <mxCell id="ye_RadcAmbAJr4Mu0Y6p-52" value="&lt;font style=&quot;font-size: 14px;&quot; face=&quot;Lucida Console&quot;&gt;&lt;span style=&quot;&quot;&gt;&quot;Ввод&lt;br&gt;данных&quot;&lt;br&gt;&lt;/span&gt;&lt;/font&gt;" style="text;html=1;strokeColor=none;fillColor=none;align=center;verticalAlign=middle;whiteSpace=wrap;rounded=0;" vertex="1" parent="1">
          <mxGeometry x="720" y="170" width="80" height="60" as="geometry" />
        </mxCell>
        <mxCell id="ye_RadcAmbAJr4Mu0Y6p-53" value="" style="endArrow=classic;html=1;rounded=0;" edge="1" parent="1">
          <mxGeometry width="50" height="50" relative="1" as="geometry">
            <mxPoint x="650" y="220" as="sourcePoint" />
            <mxPoint x="650" y="210" as="targetPoint" />
          </mxGeometry>
        </mxCell>
        <mxCell id="ye_RadcAmbAJr4Mu0Y6p-54" value="" style="endArrow=classic;html=1;rounded=0;entryX=0.25;entryY=1;entryDx=0;entryDy=0;" edge="1" parent="1" target="C6bqFNzWYAfefAJQA8YY-38">
          <mxGeometry width="50" height="50" relative="1" as="geometry">
            <mxPoint x="633" y="240" as="sourcePoint" />
            <mxPoint x="580" y="310" as="targetPoint" />
          </mxGeometry>
        </mxCell>
        <mxCell id="ye_RadcAmbAJr4Mu0Y6p-55" value="" style="ellipse;whiteSpace=wrap;html=1;aspect=fixed;fillColor=#000000;" vertex="1" parent="1">
          <mxGeometry x="632" y="238" width="3" height="3" as="geometry" />
        </mxCell>
        <mxCell id="ye_RadcAmbAJr4Mu0Y6p-65" value="" style="ellipse;whiteSpace=wrap;html=1;aspect=fixed;fillColor=#000000;" vertex="1" parent="1">
          <mxGeometry x="649" y="219" width="3" height="3" as="geometry" />
        </mxCell>
        <mxCell id="ye_RadcAmbAJr4Mu0Y6p-74" value="" style="ellipse;whiteSpace=wrap;html=1;aspect=fixed;fillColor=#000000;" vertex="1" parent="1">
          <mxGeometry x="369" y="418" width="3" height="3" as="geometry" />
        </mxCell>
        <mxCell id="ye_RadcAmbAJr4Mu0Y6p-76" value="" style="ellipse;whiteSpace=wrap;html=1;aspect=fixed;fillColor=#000000;" vertex="1" parent="1">
          <mxGeometry x="438" y="463" width="3" height="3" as="geometry" />
        </mxCell>
        <mxCell id="ye_RadcAmbAJr4Mu0Y6p-79" value="" style="endArrow=classic;html=1;rounded=0;" edge="1" parent="1">
          <mxGeometry width="50" height="50" relative="1" as="geometry">
            <mxPoint x="450" y="440" as="sourcePoint" />
            <mxPoint x="340" y="439.76" as="targetPoint" />
          </mxGeometry>
        </mxCell>
        <mxCell id="ye_RadcAmbAJr4Mu0Y6p-80" value="" style="ellipse;whiteSpace=wrap;html=1;aspect=fixed;fillColor=#000000;" vertex="1" parent="1">
          <mxGeometry x="448" y="438" width="3" height="3" as="geometry" />
        </mxCell>
        <mxCell id="ye_RadcAmbAJr4Mu0Y6p-83" value="" style="ellipse;whiteSpace=wrap;html=1;aspect=fixed;fillColor=#000000;" vertex="1" parent="1">
          <mxGeometry x="448" y="353" width="3" height="3" as="geometry" />
        </mxCell>
        <mxCell id="ye_RadcAmbAJr4Mu0Y6p-84" value="&lt;font style=&quot;font-size: 11px;&quot; face=&quot;Lucida Console&quot;&gt;Загрузка РА&lt;/font&gt;" style="text;html=1;strokeColor=none;fillColor=none;align=center;verticalAlign=middle;whiteSpace=wrap;rounded=0;" vertex="1" parent="1">
          <mxGeometry x="369" y="490" width="90" height="60" as="geometry" />
        </mxCell>
        <mxCell id="ye_RadcAmbAJr4Mu0Y6p-85" value="&lt;font style=&quot;font-size: 11px;&quot; face=&quot;Lucida Console&quot;&gt;Чтение РА&lt;/font&gt;" style="text;html=1;strokeColor=none;fillColor=none;align=center;verticalAlign=middle;whiteSpace=wrap;rounded=0;" vertex="1" parent="1">
          <mxGeometry x="370" y="450" width="90" height="60" as="geometry" />
        </mxCell>
        <mxCell id="ye_RadcAmbAJr4Mu0Y6p-86" value="&lt;font style=&quot;font-size: 17px;&quot; face=&quot;Lucida Console&quot;&gt;Регистр данных (РД)&lt;/font&gt;" style="text;html=1;strokeColor=none;fillColor=none;align=center;verticalAlign=middle;whiteSpace=wrap;rounded=0;" vertex="1" parent="1">
          <mxGeometry x="575" y="10" width="140" height="20" as="geometry" />
        </mxCell>
      </root>
    </mxGraphModel>
  </diagram>
</mxfile>
